<svg width="514" height="58" viewBox="0 0 514 58" fill="none" xmlns="http://www.w3.org/2000/svg">
<g opacity="0.38" clip-path="url(#clip0_60_19229)">
<path d="M502.132 0H497.383L514 7.64133V5.45419L502.132 0Z" fill="white"/>
<path d="M478.384 0H473.636L514 18.5575V16.3743L478.384 0Z" fill="white"/>
<path d="M454.637 0H449.888L514 29.4776V27.2943L454.637 0Z" fill="white"/>
<path d="M430.89 0H426.141L514 40.3977V38.2144L430.89 0Z" fill="white"/>
<path d="M407.142 0H402.394L514 51.3177V49.1345L407.142 0Z" fill="white"/>
<path d="M383.395 0H378.646L504.777 58H509.531L383.395 0Z" fill="white"/>
<path d="M359.647 0H354.893L481.03 58H485.784L359.647 0Z" fill="white"/>
<path d="M335.894 0H331.146L457.283 58H462.031L335.894 0Z" fill="white"/>
<path d="M312.147 0H307.399L433.535 58H438.284L312.147 0Z" fill="white"/>
<path d="M288.4 0H283.651L409.788 58H414.536L288.4 0Z" fill="white"/>
<path d="M264.652 0H259.904L386.04 58H390.789L264.652 0Z" fill="white"/>
<path d="M240.905 0H236.156L362.293 58H367.041L240.905 0Z" fill="white"/>
<path d="M217.158 0H212.404L338.54 58H343.294L217.158 0Z" fill="white"/>
<path d="M193.41 0H188.656L314.793 58H319.541L193.41 0Z" fill="white"/>
<path d="M169.657 0H164.909L291.045 58H295.794L169.657 0Z" fill="white"/>
<path d="M145.91 0H141.161L267.298 58H272.046L145.91 0Z" fill="white"/>
<path d="M122.162 0H117.414L243.551 58H248.299L122.162 0Z" fill="white"/>
<path d="M98.4152 0H93.6667L219.803 58H224.552L98.4152 0Z" fill="white"/>
<path d="M74.6677 0H69.9193L196.056 58H200.804L74.6677 0Z" fill="white"/>
<path d="M50.9203 0H46.1665L172.303 58H177.057L50.9203 0Z" fill="white"/>
<path d="M27.1676 0H22.4192L148.556 58H153.304L27.1676 0Z" fill="white"/>
<path d="M3.42014 0H0V0.612086L124.808 58H129.557L3.42014 0Z" fill="white"/>
<path d="M0 9.34497V11.5282L101.061 57.9999H105.809L0 9.34497Z" fill="white"/>
<path d="M0 20.2651V22.4484L77.3135 58H82.0619L0 20.2651Z" fill="white"/>
<path d="M0 31.1853V33.3685L53.5661 58.0001H58.3145L0 31.1853Z" fill="white"/>
<path d="M0 42.1052V44.2885L29.8133 58H34.5671L0 42.1052Z" fill="white"/>
<path d="M0 53.0254V55.2086L6.06591 58.0001H10.8197L0 53.0254Z" fill="white"/>
</g>
<defs>
<clipPath id="clip0_60_19229">
<rect width="514" height="58" fill="white"/>
</clipPath>
</defs>
</svg>
