<svg width="68" height="53" viewBox="0 0 68 53" fill="none" xmlns="http://www.w3.org/2000/svg">
<path d="M56.3155 22.4085V48.6993C56.3155 50.7052 54.6881 52.32 52.6949 52.32H4.78106C2.77519 52.32 1.1604 50.6926 1.1604 48.6993V10.1967C1.1604 8.55669 2.48503 7.23206 4.12505 7.23206H53.3635" stroke="#002A3A" stroke-width="1.16" stroke-linecap="round" stroke-linejoin="round"/>
<path d="M8.57836 13.1992C8.57836 12.9091 8.35128 12.682 8.06112 12.682C7.77096 12.682 7.54388 12.9091 7.54388 13.1992C7.54388 13.4894 7.77096 13.7165 8.06112 13.7165C8.35128 13.7165 8.57836 13.4894 8.57836 13.1992Z" stroke="#002A3A" stroke-width="1.16" stroke-linecap="round" stroke-linejoin="round"/>
<path d="M13.9652 13.7165C14.2508 13.7165 14.4824 13.4849 14.4824 13.1992C14.4824 12.9136 14.2508 12.682 13.9652 12.682C13.6795 12.682 13.4479 12.9136 13.4479 13.1992C13.4479 13.4849 13.6795 13.7165 13.9652 13.7165Z" stroke="#002A3A" stroke-width="1.16" stroke-linecap="round" stroke-linejoin="round"/>
<path d="M20.3991 13.1992C20.3991 12.9091 20.172 12.682 19.8819 12.682C19.5917 12.682 19.3646 12.9091 19.3646 13.1992C19.3646 13.4894 19.5917 13.7165 19.8819 13.7165C20.172 13.7165 20.3991 13.4894 20.3991 13.1992Z" stroke="#002A3A" stroke-width="1.16" stroke-linecap="round" stroke-linejoin="round"/>
<path d="M1.1604 19.0402H35.0079" stroke="#002A3A" stroke-width="1.16" stroke-linecap="round" stroke-linejoin="round"/>
<path d="M44.3812 19.7089L46.4123 21.74L48.4434 23.771C52.5561 22.3581 55.546 19.015 56.7697 17.4507C57.1355 16.9839 57.0977 16.3153 56.6687 15.8863L54.461 13.6786L52.2533 11.4709C51.837 11.0546 51.1557 11.0041 50.689 11.37C49.1246 12.6063 45.7941 15.5962 44.3686 19.6962L44.3812 19.7089Z" stroke="#002A3A" stroke-width="1.16" stroke-linecap="round" stroke-linejoin="round"/>
<path d="M56.2525 15.47L66.3954 5.32713C66.8748 4.84774 67.1397 4.20435 67.1397 3.53573C67.1397 2.1354 66.0043 1 64.604 1C63.9354 1 63.292 1.26492 62.8126 1.74431L52.6697 11.8872" stroke="#002A3A" stroke-width="1.16" stroke-linecap="round" stroke-linejoin="round"/>
<path d="M48.4307 23.7584C48.6831 25.1714 48.3424 26.9123 47.6486 28.1739C46.9547 29.4354 45.567 30.205 44.2298 30.7348C43.1196 31.1764 41.9211 31.3025 40.7353 31.4161C39.2466 31.5675 37.7706 31.7062 36.282 31.8576C36.4334 30.369 36.5721 28.893 36.7235 27.4043C36.8371 26.2185 36.9632 25.02 37.4048 23.9098C37.9346 22.5726 38.7042 21.1849 39.9657 20.491C41.2273 19.7972 42.9556 19.4565 44.3812 19.7089" stroke="#002A3A" stroke-width="1.16" stroke-linecap="round" stroke-linejoin="round"/>
<path d="M31.7279 32.009H8.57837V23.0141" stroke="#002A3A" stroke-width="1.16" stroke-linecap="round" stroke-linejoin="round"/>
<path d="M18.7591 35.7684H8.57837V47.3243H18.7591V35.7684Z" stroke="#002A3A" stroke-width="1.16" stroke-linecap="round" stroke-linejoin="round"/>
<path d="M22.8339 35.7684H32.4469" stroke="#002A3A" stroke-width="1.16" stroke-linecap="round" stroke-linejoin="round"/>
<path d="M22.8339 41.5337H32.4469" stroke="#002A3A" stroke-width="1.16" stroke-linecap="round" stroke-linejoin="round"/>
<path d="M22.8339 47.3116H32.4469" stroke="#002A3A" stroke-width="1.16" stroke-linecap="round" stroke-linejoin="round"/>
<path d="M40.8237 23.216C40.5461 23.5314 40.2308 24.0486 39.8901 24.9065C39.5874 25.6634 39.4864 26.6348 39.3855 27.6693L39.272 28.8678L40.4704 28.7542C41.4923 28.6533 42.4637 28.5524 43.2333 28.2496C44.0911 27.909 44.6083 27.581 44.9237 27.3161C42.9305 26.7862 41.3661 25.2219 40.8363 23.2286L40.8237 23.216Z" fill="#002A3A"/>
</svg>
