<svg width="69" height="66" viewBox="0 0 69 66" fill="none" xmlns="http://www.w3.org/2000/svg">
<path d="M23.087 35.053L34.9499 49.9404" stroke="#002A3A" stroke-width="1.16" stroke-linecap="round" stroke-linejoin="round"/>
<path d="M46.7972 35.053L34.95 49.9404V57.5251" stroke="#002A3A" stroke-width="1.16" stroke-linecap="round" stroke-linejoin="round"/>
<path d="M25.7511 21.6542H21.0341L7.61981 35.0528L26.4406 55.6601L34.9499 64.9843" stroke="#002A3A" stroke-width="1.16" stroke-linecap="round" stroke-linejoin="round"/>
<path d="M34.95 64.9843L43.4593 55.6601L62.2801 35.0528L48.8658 21.6542H44.6346" stroke="#002A3A" stroke-width="1.16" stroke-linecap="round" stroke-linejoin="round"/>
<path d="M37.3006 40.5534C36 41.8541 33.9 41.8541 32.5994 40.5534C31.2987 39.2527 31.2987 37.1528 32.5994 35.8521C33.9 34.5514 36 34.5514 37.3006 35.8521C38.6013 37.1528 38.6013 39.2527 37.3006 40.5534Z" stroke="#002A3A" stroke-width="1.16" stroke-miterlimit="10" stroke-linecap="round"/>
<path d="M28.4465 14.1793C32.0351 10.5906 37.8647 10.5906 41.4533 14.1793C45.042 17.7679 45.042 23.5975 41.4533 27.1862C39.6512 28.9883 37.3005 29.8816 34.9499 29.8816" stroke="#002A3A" stroke-width="1.16" stroke-miterlimit="10" stroke-linecap="round"/>
<path d="M31.8628 29.3487C30.6248 28.9099 29.4495 28.1891 28.4622 27.1861C25.6258 24.3497 25.0303 20.1342 26.6757 16.7023" stroke="#002A3A" stroke-width="1.16" stroke-miterlimit="10" stroke-linecap="round"/>
<path d="M53.144 9.77573C51.1381 11.7816 47.8785 11.7816 45.8726 9.77573C43.8668 7.76985 43.8668 4.51029 45.8726 2.50441C47.8785 0.49853 51.1381 0.49853 53.144 2.50441C55.1498 4.51029 55.1498 7.76985 53.144 9.77573Z" stroke="#002A3A" stroke-width="1.16" stroke-miterlimit="10" stroke-linecap="round"/>
<path d="M49.5082 8.08331C48.9911 8.08331 48.4896 7.87959 48.1292 7.50349C47.3613 6.73561 47.3613 5.4976 48.1292 4.72973C48.5053 4.35362 48.9911 4.1499 49.5082 4.1499C50.0254 4.1499 50.5268 4.35362 50.8873 4.72973C51.6552 5.4976 51.6552 6.73561 50.8873 7.50349C50.5112 7.87959 50.0254 8.08331 49.5082 8.08331Z" fill="#002A3A"/>
<path d="M66.4955 24.2557C64.4896 26.2616 61.2301 26.2616 59.2242 24.2557C57.2183 22.2498 57.2183 18.9903 59.2242 16.9844C61.2301 14.9785 64.4896 14.9785 66.4955 16.9844C68.5014 18.9903 68.5014 22.2498 66.4955 24.2557Z" stroke="#002A3A" stroke-width="1.16" stroke-miterlimit="10" stroke-linecap="round"/>
<path d="M62.8599 22.5789C62.3428 22.5789 61.8413 22.3751 61.4809 21.999C61.1048 21.6229 60.9011 21.1371 60.9011 20.62C60.9011 20.1029 61.1048 19.6014 61.4809 19.241C61.857 18.8649 62.3428 18.6611 62.8599 18.6611C63.3771 18.6611 63.8785 18.8649 64.239 19.241C65.0068 20.0088 65.0068 21.2468 64.239 22.0147C63.8629 22.3908 63.3771 22.5945 62.8599 22.5945V22.5789Z" fill="#002A3A"/>
<path d="M9.6257 23.3623C7.61982 25.3682 4.36027 25.3682 2.35439 23.3623C0.348505 21.3564 0.348505 18.0968 2.35439 16.091C4.36027 14.0851 7.61982 14.0851 9.6257 16.091C11.6316 18.0968 11.6316 21.3564 9.6257 23.3623Z" stroke="#002A3A" stroke-width="1.16" stroke-miterlimit="10" stroke-linecap="round"/>
<path d="M5.9901 21.6856C5.47296 21.6856 4.9715 21.4819 4.61106 21.1058C3.84319 20.3379 3.84319 19.0999 4.61106 18.332C4.98717 17.9559 5.47296 17.7522 5.9901 17.7522C6.50724 17.7522 7.00871 17.9559 7.36914 18.332C7.74524 18.7081 7.94897 19.1939 7.94897 19.7111C7.94897 20.2282 7.74524 20.7297 7.36914 21.0901C6.99304 21.4662 6.50724 21.6699 5.9901 21.6699V21.6856Z" fill="#002A3A"/>
<path d="M24.043 9.77573C22.0371 11.7816 18.7776 11.7816 16.7717 9.77573C14.7658 7.76985 14.7658 4.51029 16.7717 2.50441C18.7776 0.49853 22.0371 0.49853 24.043 2.50441C26.0489 4.51029 26.0489 7.76985 24.043 9.77573Z" stroke="#002A3A" stroke-width="1.16" stroke-miterlimit="10" stroke-linecap="round"/>
<path d="M20.4073 8.08331C19.8901 8.08331 19.3887 7.87959 19.0282 7.50349C18.2604 6.73561 18.2604 5.4976 19.0282 4.72973C19.4043 4.35362 19.8901 4.1499 20.4073 4.1499C20.9244 4.1499 21.4259 4.35362 21.7863 4.72973C22.5542 5.4976 22.5542 6.73561 21.7863 7.50349C21.4102 7.87959 20.9244 8.08331 20.4073 8.08331Z" fill="#002A3A"/>
<path d="M45.8726 9.76001L41.4534 14.1792" stroke="#002A3A" stroke-width="1.16" stroke-miterlimit="10" stroke-linecap="round"/>
<path d="M24.043 9.77563L30.7345 16.4515" stroke="#002A3A" stroke-width="1.16" stroke-miterlimit="10" stroke-linecap="round"/>
<path d="M34.95 34.8805V29.8815" stroke="#002A3A" stroke-width="1.16" stroke-miterlimit="10" stroke-linecap="round"/>
<path d="M53.1439 9.77563L59.5377 16.1537" stroke="#002A3A" stroke-width="1.16" stroke-miterlimit="10" stroke-linecap="round"/>
<path d="M16.4269 9.77563L10.0331 16.1537" stroke="#002A3A" stroke-width="1.16" stroke-miterlimit="10" stroke-linecap="round"/>
<path d="M13.183 34.8806H27.0518" stroke="#002A3A" stroke-width="1.16" stroke-linecap="round" stroke-linejoin="round"/>
<path d="M43.1301 34.8806H57.0146" stroke="#002A3A" stroke-width="1.16" stroke-linecap="round" stroke-linejoin="round"/>
</svg>
