<svg width="45" height="64" viewBox="0 0 45 64" fill="none" xmlns="http://www.w3.org/2000/svg">
<path d="M3.24329 26.8108C4.48223 26.8108 5.48659 25.8064 5.48659 24.5675C5.48659 23.3286 4.48223 22.3242 3.24329 22.3242C2.00436 22.3242 1 23.3286 1 24.5675C1 25.8064 2.00436 26.8108 3.24329 26.8108Z" stroke="#002A3A" stroke-width="1.16" stroke-linecap="round" stroke-linejoin="round"/>
<path d="M3.24329 44.1511C4.48223 44.1511 5.48659 43.1468 5.48659 41.9078C5.48659 40.6689 4.48223 39.6646 3.24329 39.6646C2.00436 39.6646 1 40.6689 1 41.9078C1 43.1468 2.00436 44.1511 3.24329 44.1511Z" stroke="#002A3A" stroke-width="1.16" stroke-linecap="round" stroke-linejoin="round"/>
<path d="M14.1503 21.5765L10.3599 24.6965C9.19958 25.6506 8.52917 27.0687 8.52917 28.5772V36.7381C8.52917 39.2264 10.5404 41.2376 13.0287 41.2376" stroke="#002A3A" stroke-width="1.16" stroke-linecap="round" stroke-linejoin="round"/>
<path d="M23.7552 63H24.9929C27.1589 63 28.9122 61.2466 28.9122 59.0807V30.7559L32.4706 33.1668C33.8887 34.1337 35.8355 33.6825 36.6864 32.1869L40.7089 25.109C41.5082 23.6908 40.9796 21.8987 39.5485 21.151C38.2077 20.4419 36.5575 20.906 35.7582 22.1953L33.4246 26.3337L27.3651 21.4475" stroke="#002A3A" stroke-width="1.16" stroke-linecap="round" stroke-linejoin="round"/>
<path d="M17.1415 62.9999C19.3074 62.9999 21.0608 61.2465 21.0608 59.0806V43.5452" stroke="#002A3A" stroke-width="1.16" stroke-linecap="round" stroke-linejoin="round"/>
<path d="M13.2478 29.7761L13.222 32.4578V60.1379" stroke="#002A3A" stroke-width="1.16" stroke-linecap="round" stroke-linejoin="round"/>
<path d="M17.1413 63H12.3196C10.2181 63 8.52916 61.2982 8.52916 59.2096V45.1955L5.24158 42.9393" stroke="#002A3A" stroke-width="1.16" stroke-linecap="round" stroke-linejoin="round"/>
<path d="M3.24329 26.8108V39.6517" stroke="#002A3A" stroke-width="1.16" stroke-linecap="round" stroke-linejoin="round"/>
<path d="M31.568 7.98773C29.8533 3.88792 25.7922 1 21.0735 1C14.7949 1 9.70235 6.10542 9.70235 12.3712V19.0108L5.09973 23.2653" stroke="#002A3A" stroke-width="1.16" stroke-linecap="round" stroke-linejoin="round"/>
<path d="M28.9509 12.3713C28.9509 16.729 25.4184 20.2486 21.0736 20.2486C16.7288 20.2486 13.1963 16.7161 13.1963 12.3713C13.1963 8.02656 16.7288 4.49402 21.0736 4.49402C25.4184 4.49402 28.9509 8.02656 28.9509 12.3713Z" stroke="#002A3A" stroke-width="1.16" stroke-linecap="round" stroke-linejoin="round"/>
<path d="M21.0737 7.11096C20.3775 7.11096 19.72 7.25278 19.114 7.49774C21.0479 8.27129 22.4145 10.1665 22.4145 12.3711C22.4145 14.5757 21.0479 16.4709 19.114 17.2445C19.72 17.4894 20.3775 17.6312 21.0737 17.6312C23.9745 17.6312 26.3338 15.2719 26.3338 12.3711C26.3338 9.47029 23.9745 7.11096 21.0737 7.11096Z" fill="#002A3A"/>
<path d="M38.9684 17.6184C36.0676 17.6184 33.7212 15.272 33.7212 12.3711C33.7212 9.47033 36.0676 7.1239 38.9684 7.1239C41.8692 7.1239 44.2157 9.47033 44.2157 12.3711C44.2157 15.272 41.8692 17.6184 38.9684 17.6184Z" stroke="#002A3A" stroke-width="1.16" stroke-linecap="round" stroke-linejoin="round"/>
<path d="M35.6034 8.28428L34.7654 6.60825C33.9145 4.91934 34.933 2.88232 36.8024 2.56001C37.4471 2.44398 38.1819 2.37952 38.9813 2.37952C39.7806 2.37952 40.5155 2.45687 41.1601 2.56001C43.0295 2.88232 44.048 4.91934 43.1971 6.60825L42.3591 8.28428" stroke="#002A3A" stroke-width="1.16" stroke-linecap="round" stroke-linejoin="round"/>
</svg>
