<svg width="37" height="56" viewBox="0 0 37 56" fill="none" xmlns="http://www.w3.org/2000/svg">
<path d="M4.91388 21.3833C4.91388 22.463 4.03663 23.3402 2.95694 23.3402C1.87725 23.3402 1 22.463 1 21.3833C1 20.3036 1.87725 19.4263 2.95694 19.4263C4.03663 19.4263 4.91388 20.3036 4.91388 21.3833Z" stroke="#002A3A" stroke-width="1.16" stroke-linecap="round" stroke-linejoin="round"/>
<path d="M2.95694 38.4672C4.03773 38.4672 4.91388 37.5911 4.91388 36.5103C4.91388 35.4295 4.03773 34.5533 2.95694 34.5533C1.87615 34.5533 1 35.4295 1 36.5103C1 37.5911 1.87615 38.4672 2.95694 38.4672Z" stroke="#002A3A" stroke-width="1.16" stroke-linecap="round" stroke-linejoin="round"/>
<path d="M12.4717 18.774L9.16516 21.4958C8.15295 22.328 7.56812 23.5652 7.56812 24.881V32.0003C7.56812 34.1709 9.32261 35.9254 11.4932 35.9254" stroke="#002A3A" stroke-width="1.16" stroke-linecap="round" stroke-linejoin="round"/>
<path d="M11.6732 25.9271L11.662 28.2664V52.4132" stroke="#002A3A" stroke-width="1.16" stroke-linecap="round" stroke-linejoin="round"/>
<path d="M16.8692 54.91H10.8747C9.04145 54.91 7.56812 53.4254 7.56812 51.6034V39.3782L4.7002 37.41" stroke="#002A3A" stroke-width="1.16" stroke-linecap="round" stroke-linejoin="round"/>
<path d="M2.95691 23.3403V34.5421" stroke="#002A3A" stroke-width="1.16" stroke-linecap="round" stroke-linejoin="round"/>
<path d="M18.5 0.824219C13.0228 0.824219 8.58035 5.27794 8.58035 10.7439V16.536L4.56525 20.2474" stroke="#002A3A" stroke-width="1.16" stroke-linecap="round" stroke-linejoin="round"/>
<path d="M32.0861 21.3833C32.0861 22.463 32.9634 23.3402 34.0431 23.3402C35.1228 23.3402 36 22.463 36 21.3833C36 20.3036 35.1228 19.4263 34.0431 19.4263C32.9634 19.4263 32.0861 20.3036 32.0861 21.3833Z" stroke="#002A3A" stroke-width="1.16" stroke-linecap="round" stroke-linejoin="round"/>
<path d="M15.5533 24.3187C15.5533 25.9494 16.8692 27.2653 18.5 27.2653C20.1308 27.2653 21.4467 25.9494 21.4467 24.3187C21.4467 22.6879 20.1308 21.372 18.5 21.372C16.8692 21.372 15.5533 22.6879 15.5533 24.3187Z" stroke="#002A3A" stroke-width="1.16" stroke-linecap="round" stroke-linejoin="round"/>
<path d="M34.0431 38.4672C35.1238 38.4672 36 37.5911 36 36.5103C36 35.4295 35.1238 34.5533 34.0431 34.5533C32.9623 34.5533 32.0861 35.4295 32.0861 36.5103C32.0861 37.5911 32.9623 38.4672 34.0431 38.4672Z" stroke="#002A3A" stroke-width="1.16" stroke-linecap="round" stroke-linejoin="round"/>
<path d="M24.5283 18.774L27.8348 21.4958C28.847 22.328 29.4319 23.5652 29.4319 24.881V32.0003C29.4319 34.1709 27.6774 35.9254 25.5067 35.9254" stroke="#002A3A" stroke-width="1.16" stroke-linecap="round" stroke-linejoin="round"/>
<path d="M21.919 54.9099C20.0296 54.9099 18.5 53.3804 18.5 51.4909V27.3441" stroke="#002A3A" stroke-width="1.16" stroke-linecap="round" stroke-linejoin="round"/>
<path d="M25.3268 25.9271L25.338 28.2664V52.4132" stroke="#002A3A" stroke-width="1.16" stroke-linecap="round" stroke-linejoin="round"/>
<path d="M21.9191 54.91H26.1254C27.9586 54.91 29.4319 53.4254 29.4319 51.6034V39.3782L32.2998 37.41" stroke="#002A3A" stroke-width="1.16" stroke-linecap="round" stroke-linejoin="round"/>
<path d="M34.0431 23.3403V34.5421" stroke="#002A3A" stroke-width="1.16" stroke-linecap="round" stroke-linejoin="round"/>
<path d="M18.5 0.824219C23.9772 0.824219 28.4197 5.27794 28.4197 10.7439V16.536L32.4348 20.2474" stroke="#002A3A" stroke-width="1.16" stroke-linecap="round" stroke-linejoin="round"/>
<path d="M18.5 3.87207C22.3014 3.87207 25.3718 6.95369 25.3718 10.7439C25.3718 14.534 22.2902 17.6156 18.5 17.6156C14.7099 17.6156 11.6282 14.534 11.6282 10.7439C11.6282 6.95369 14.7099 3.87207 18.5 3.87207Z" stroke="#002A3A" stroke-width="1.16" stroke-linecap="round" stroke-linejoin="round"/>
<path d="M18.5732 6.6558C20.7939 6.69497 22.5887 8.51389 22.5887 10.7438C22.5887 12.9738 20.7939 14.7927 18.5732 14.8319C19.8269 13.9054 20.642 12.4206 20.642 10.7438C20.642 9.06709 19.8269 7.58226 18.5732 6.6558Z" stroke="#002A3A"/>
</svg>
