<svg width="96" height="99" viewBox="0 0 96 99" fill="none" xmlns="http://www.w3.org/2000/svg">
<g clip-path="url(#clip0_134_5632)">
<path d="M52.7933 63.5458H20.3547H18.1527C8.99582 63.5458 1.5575 56.0203 1.5575 46.756C1.5575 37.4917 8.99582 29.9662 18.1527 29.9662C18.3676 29.9662 18.5824 29.9662 18.7972 29.9934C18.4481 28.3905 18.2602 26.706 18.2602 24.9673C18.2602 12.0625 28.6255 1.57568 41.4076 1.57568C51.7997 1.57568 60.6076 8.53068 63.5346 18.0666C65.9513 17.1973 68.583 16.7082 71.2951 16.7082C84.0772 16.7082 94.4425 27.1951 94.4425 40.127C94.4425 53.059 84.856 62.7579 72.7452 63.4914H68.4487" stroke="#002A3A" stroke-width="3.16" stroke-linecap="round" stroke-linejoin="round"/>
<path d="M67.8579 63.5459C67.8579 63.5459 58.889 63.5459 58.889 72.62V79.3305H50.0811L64.5013 96.555L78.9214 79.3305H70.1136" stroke="#002A3A" stroke-width="3.16" stroke-miterlimit="10" stroke-linecap="round"/>
<path d="M71.7516 22.2233C69.5765 22.2233 67.4014 22.6037 65.3606 23.3372C62.7827 24.2609 59.9631 22.8482 59.1575 20.1857C56.687 12.0625 49.383 6.62891 40.9779 6.62891C37.1379 6.62891 33.5665 7.79713 30.5858 9.78039C30.9348 9.78039 31.2839 9.78039 31.633 9.78039C38.4 10.1336 45.355 12.4972 49.92 17.5504C53.4646 21.4626 55.2906 26.5974 57.063 31.5963C63.5077 28.6349 70.7312 27.4667 77.7667 28.0644C80.8817 28.3089 83.9698 28.961 86.9505 29.9118C83.4865 25.239 77.9547 22.1961 71.7248 22.1961L71.7516 22.2233Z" fill="#002A3A"/>
</g>
<defs>
<clipPath id="clip0_134_5632">
<rect width="96" height="99" fill="white"/>
</clipPath>
</defs>
</svg>
