<svg width="54" height="53" viewBox="0 0 54 53" fill="none" xmlns="http://www.w3.org/2000/svg">
<g clip-path="url(#clip0_126_3538)">
<path d="M8.14117 31.6334L36.7049 48.125" stroke="#002A3A" stroke-width="1.16" stroke-linecap="round" stroke-linejoin="round"/>
<path d="M8.14117 31.6334V4.47397" stroke="#002A3A" stroke-width="1.16" stroke-linecap="round" stroke-linejoin="round"/>
<path d="M5.38715 3.45073L8.14119 0.696686L10.8952 3.45073" stroke="#002A3A" stroke-width="1.16" stroke-linecap="round" stroke-linejoin="round"/>
<path d="M40.025 47.9291L40.7761 50.3566L36.8682 50.7702" stroke="#002A3A" stroke-width="1.16" stroke-linecap="round" stroke-linejoin="round"/>
<path d="M4.02645 34.3766L1.49011 35.8461" stroke="#002A3A" stroke-width="1.16" stroke-linecap="round" stroke-linejoin="round"/>
<path d="M7.58604 36.336L5.03882 37.8055" stroke="#002A3A" stroke-width="1.16" stroke-linecap="round" stroke-linejoin="round"/>
<path d="M11.1347 38.2953L8.58752 39.754" stroke="#002A3A" stroke-width="1.16" stroke-linecap="round" stroke-linejoin="round"/>
<path d="M14.6834 40.2439L12.1362 41.7134" stroke="#002A3A" stroke-width="1.16" stroke-linecap="round" stroke-linejoin="round"/>
<path d="M18.2321 42.2033L15.6849 43.6728" stroke="#002A3A" stroke-width="1.16" stroke-linecap="round" stroke-linejoin="round"/>
<path d="M21.7808 44.1627L19.2336 45.6322" stroke="#002A3A" stroke-width="1.16" stroke-linecap="round" stroke-linejoin="round"/>
<path d="M25.3294 46.1221L22.7822 47.5807" stroke="#002A3A" stroke-width="1.16" stroke-linecap="round" stroke-linejoin="round"/>
<path d="M28.7475 48.0706L26.2112 49.5401" stroke="#002A3A" stroke-width="1.16" stroke-linecap="round" stroke-linejoin="round"/>
<path d="M32.1656 50.03L29.6293 51.4995" stroke="#002A3A" stroke-width="1.16" stroke-linecap="round" stroke-linejoin="round"/>
<path d="M13.388 19.2783L21.4106 14.6411L36.3238 23.11L28.2903 27.7473" stroke="#002A3A" stroke-width="1.16" stroke-linecap="round" stroke-linejoin="round"/>
<path d="M36.3238 23.11V32.3845L28.2903 37.0217L13.388 28.5419V19.2783L28.2903 27.7472V33.9085" stroke="#002A3A" stroke-width="1.16" stroke-linecap="round" stroke-linejoin="round"/>
<path d="M15.7284 27.1812L25.9499 32.9941V29.1189L15.7284 23.306V27.1812Z" fill="#002A3A"/>
<path d="M21.1821 5.26859L29.2047 0.631348L44.1179 9.11119L36.0844 13.7375" stroke="#002A3A" stroke-width="1.16" stroke-linecap="round" stroke-linejoin="round"/>
<path d="M36.0844 23.012L44.1179 18.3748V9.11121" stroke="#002A3A" stroke-width="1.16" stroke-linecap="round" stroke-linejoin="round"/>
<path d="M36.0844 19.8988V13.7376L21.1821 5.26862V14.5322" stroke="#002A3A" stroke-width="1.16" stroke-linecap="round" stroke-linejoin="round"/>
<path d="M44.1179 18.4836V27.7472L36.3239 32.3845" stroke="#002A3A" stroke-width="1.16" stroke-linecap="round" stroke-linejoin="round"/>
<path d="M38.9146 42.2033L52.8699 34.148L45.8922 30.1203" stroke="#002A3A" stroke-width="1.16" stroke-linecap="round" stroke-linejoin="round"/>
<path d="M49.7457 35.955L46.491 34.0718" stroke="#002A3A" stroke-width="1.16" stroke-linecap="round" stroke-linejoin="round"/>
<path d="M46.6325 37.7511L43.3777 35.8788" stroke="#002A3A" stroke-width="1.16" stroke-linecap="round" stroke-linejoin="round"/>
<path d="M43.5083 39.5581L40.2535 37.6749" stroke="#002A3A" stroke-width="1.16" stroke-linecap="round" stroke-linejoin="round"/>
</g>
<defs>
<clipPath id="clip0_126_3538">
<rect width="52.6425" height="52.12" fill="white" transform="translate(0.858765)"/>
</clipPath>
</defs>
</svg>
