<svg width="49" height="57" viewBox="0 0 49 57" fill="none" xmlns="http://www.w3.org/2000/svg">
<path d="M26.7083 16.125V15.4235C26.7083 14.4298 27.5149 13.6231 28.5086 13.6231C29.5024 13.6231 30.309 14.4298 30.309 15.4235V16.125" stroke="#002A3A" stroke-width="1.16" stroke-linecap="round" stroke-linejoin="round"/>
<path d="M19.1209 16.125V15.4235C19.1209 14.4298 19.9276 13.6231 20.9213 13.6231C21.915 13.6231 22.7217 14.4298 22.7217 15.4235V16.125" stroke="#002A3A" stroke-width="1.16" stroke-linecap="round" stroke-linejoin="round"/>
<path d="M27.1993 21.7015C27.1993 22.7537 26.1588 23.6072 24.8845 23.6072C23.6102 23.6072 22.5697 22.7537 22.5697 21.7015" stroke="#002A3A" stroke-width="1.16" stroke-linecap="round" stroke-linejoin="round"/>
<path d="M24.7208 41.0617C25.2352 39.5652 27.0824 38.4897 28.7542 38.4897C30.8585 38.4897 33.1383 40.1966 32.8928 42.9907C32.3667 48.8712 24.7208 52.1446 24.7208 52.1446C24.7208 52.1446 17.0867 48.8712 16.5489 42.9907C16.2917 40.1966 18.5831 38.4897 20.6875 38.4897C22.3593 38.4897 24.2064 39.5652 24.7208 41.0617Z" stroke="#002A3A" stroke-width="1.16" stroke-linecap="round" stroke-linejoin="round"/>
<path d="M24.7092 49.409L27.0357 41.8567C27.4916 40.5473 30.6481 40.5356 30.4494 42.7685C30.1571 46.042 26.4862 48.4386 24.7092 49.409Z" fill="#002A3A"/>
<path d="M46.8634 40.5005C47.8454 42.032 48.43 43.8558 48.43 45.8081C48.43 47.7605 47.8571 49.5843 46.8634 51.1158" stroke="#002A3A" stroke-width="1.16" stroke-linecap="round" stroke-linejoin="round"/>
<path d="M43.9407 43.6453C44.3382 44.2649 44.572 45.0131 44.572 45.8081C44.572 46.6031 44.3382 47.3396 43.9407 47.9709" stroke="#002A3A" stroke-width="1.16" stroke-linecap="round" stroke-linejoin="round"/>
<path d="M2.56658 40.5005C1.58455 42.032 1 43.8558 1 45.8081C1 47.7605 1.57285 49.5843 2.56658 51.1158" stroke="#002A3A" stroke-width="1.16" stroke-linecap="round" stroke-linejoin="round"/>
<path d="M5.48928 43.6453C5.09179 44.2649 4.85797 45.0131 4.85797 45.8081C4.85797 46.6031 5.09179 47.3396 5.48928 47.9709" stroke="#002A3A" stroke-width="1.16" stroke-linecap="round" stroke-linejoin="round"/>
<path d="M24.6156 28.1666V34.4563" stroke="#002A3A" stroke-width="1.16" stroke-linecap="round" stroke-linejoin="round"/>
<path d="M37.347 34.4329H12.0947C10.4547 34.4329 9.12518 35.7624 9.12518 37.4024V53.2319C9.12518 54.8719 10.4547 56.2014 12.0947 56.2014H37.347C38.987 56.2014 40.3165 54.8719 40.3165 53.2319V37.4024C40.3165 35.7624 38.987 34.4329 37.347 34.4329Z" stroke="#002A3A" stroke-width="1.16" stroke-linecap="round" stroke-linejoin="round"/>
<path d="M32.542 9.06366C34.3424 11.0979 35.4531 13.8219 35.4531 16.8264C35.4531 23.0928 30.6481 28.1666 24.7208 28.1666C18.7935 28.1666 13.9886 23.0928 13.9886 16.8264C13.9886 13.8219 15.0992 11.0862 16.8996 9.06366" stroke="#002A3A" stroke-width="1.16" stroke-linecap="round" stroke-linejoin="round"/>
<path d="M35.4531 14.1725H38.2238C38.8317 14.1725 39.3344 14.6636 39.3344 15.2832V18.3696C39.3344 18.9775 38.8317 19.4802 38.2238 19.4802H35.4531" stroke="#002A3A" stroke-width="1.16" stroke-linecap="round" stroke-linejoin="round"/>
<path d="M13.977 14.1725H11.2062C10.5983 14.1725 10.0956 14.6636 10.0956 15.2832V18.3696C10.0956 18.9775 10.5866 19.4802 11.2062 19.4802H13.977" stroke="#002A3A" stroke-width="1.16" stroke-linecap="round" stroke-linejoin="round"/>
<path d="M16.6776 9.01684V3.67413C16.6776 2.20108 17.87 1.00861 19.3431 1.00861H30.0987C31.5718 1.00861 32.7642 2.20108 32.7642 3.67413V9.01684C27.4683 10.1392 21.9969 10.1392 16.6892 9.01684H16.6776Z" stroke="#002A3A" stroke-width="1.16" stroke-linecap="round" stroke-linejoin="round"/>
</svg>
