<svg width="40" height="50" viewBox="0 0 40 50" fill="none" xmlns="http://www.w3.org/2000/svg">
<g clip-path="url(#clip0_444_474)">
<path d="M22.7304 45.7111H20.0925" stroke="#002A3A" stroke-width="1.16" stroke-linecap="round" stroke-linejoin="round"/>
<path d="M24.604 38.998H12.5609C12.5609 42.1432 14.6071 44.816 17.4422 45.7111V47.7996C17.4422 48.6201 18.0955 49.279 18.9091 49.279H21.2635C22.0771 49.279 22.7304 48.6201 22.7304 47.7996V45.7111C25.5532 44.8036 27.6117 42.1432 27.6117 38.998V36.462C27.6117 34.4107 28.4992 32.1606 30.0401 30.6067C32.567 28.0458 34.1325 24.5276 34.1325 20.6241C34.1325 12.27 26.9461 5.60667 18.4653 6.5639C12.2034 7.27251 7.12482 12.2203 6.21265 18.4983C5.52236 23.2596 7.18646 27.6479 10.2065 30.6564C11.735 32.1855 12.5732 34.2864 12.5732 36.4495" stroke="#002A3A" stroke-width="1.16" stroke-linecap="round" stroke-linejoin="round"/>
<path d="M20.0925 3.15764V0.721039" stroke="#002A3A" stroke-width="1.16" stroke-linecap="round" stroke-linejoin="round"/>
<path d="M11.6118 5.44507L10.4037 3.3317" stroke="#002A3A" stroke-width="1.16" stroke-linecap="round" stroke-linejoin="round"/>
<path d="M5.39912 11.7106L3.30359 10.4923" stroke="#002A3A" stroke-width="1.16" stroke-linecap="round" stroke-linejoin="round"/>
<path d="M3.13099 20.2635H0.714966" stroke="#002A3A" stroke-width="1.16" stroke-linecap="round" stroke-linejoin="round"/>
<path d="M39.285 20.2635H36.869" stroke="#002A3A" stroke-width="1.16" stroke-linecap="round" stroke-linejoin="round"/>
<path d="M34.7858 11.7106L36.869 10.4923" stroke="#002A3A" stroke-width="1.16" stroke-linecap="round" stroke-linejoin="round"/>
<path d="M28.5732 5.44507L29.7812 3.3317" stroke="#002A3A" stroke-width="1.16" stroke-linecap="round" stroke-linejoin="round"/>
<path d="M20.8937 12.4068L22.2989 15.2785C22.7673 16.2357 23.6672 16.8946 24.715 17.0438L27.8582 17.5037C28.6718 17.6281 29.0046 18.635 28.4129 19.2193L26.1325 21.457C25.3806 22.2029 25.0354 23.272 25.208 24.3287L25.7504 27.4863C25.886 28.3068 25.0354 28.9408 24.3082 28.543L21.4977 27.0512C20.5609 26.554 19.4391 26.554 18.5146 27.0512L15.7042 28.543C14.9769 28.9284 14.114 28.3068 14.2619 27.4863L14.8043 24.3287C14.9892 23.2844 14.6317 22.2029 13.8798 21.457L11.5994 19.2193C11.0077 18.635 11.3282 17.6281 12.1541 17.5037L15.2974 17.0438C16.3452 16.8946 17.245 16.2233 17.7134 15.2785L19.1186 12.4068C19.4884 11.6609 20.5485 11.6609 20.906 12.4068H20.8937Z" stroke="#002A3A" stroke-width="1.16" stroke-linecap="round" stroke-linejoin="round"/>
<path d="M22.5085 25.1243C21.7442 24.7141 20.869 24.5027 20.0062 24.5027C19.1433 24.5027 18.2681 24.7141 17.5039 25.1243L16.8012 25.4973L16.9368 24.7141C17.2327 22.9488 16.6533 21.1586 15.3837 19.903L14.8167 19.3436L15.6056 19.2317C17.3559 18.9706 18.8721 17.8642 19.661 16.2606L20.0062 15.5395L20.3636 16.2606C21.1526 17.8642 22.6687 18.9706 24.4191 19.2317L25.208 19.3436L24.641 19.903C23.3713 21.1586 22.792 22.9488 23.0878 24.7141L23.2234 25.4973L22.5208 25.1243H22.5085Z" fill="#002A3A"/>
</g>
<defs>
<clipPath id="clip0_444_474">
<rect width="40" height="50" fill="white"/>
</clipPath>
</defs>
</svg>
