<svg width="59" height="58" viewBox="0 0 59 58" fill="none" xmlns="http://www.w3.org/2000/svg">
<path d="M35.0378 42.2442C42.0232 49.5567 50.984 47.8954 50.984 47.8954C53.718 47.6468 55.3924 45.8023 54.2412 42.9375C53.6395 41.5509 54.2674 40.6745 54.7122 39.8896C56.0203 37.5611 54.0843 37.0378 54.0712 35.4027C54.0712 34.6963 54.6468 34.1207 55.3532 34.0553C56.4127 33.9506 57.3154 33.4928 57.8779 32.9041C58.3488 32.407 58.4011 31.6483 58.0479 31.0727C53.2863 23.3154 54.2543 25.3562 52.593 14.4201C52.436 13.3475 52.109 12.2486 51.638 11.1628" stroke="#002A3A" stroke-width="1.16" stroke-miterlimit="10" stroke-linecap="round"/>
<path d="M36.8691 43.9317L32.6569 57" stroke="#002A3A" stroke-width="1.16" stroke-miterlimit="10" stroke-linecap="round"/>
<path d="M31.218 40.0858H18.045C17.1032 40.0858 16.266 40.6744 15.9389 41.564L10.484 56.5552" stroke="#002A3A" stroke-width="1.16" stroke-miterlimit="10" stroke-linecap="round"/>
<path d="M39.8909 19.1294L50.3429 8.82128C49.8197 8.06256 49.2179 7.32999 48.5246 6.63668C44.5479 2.65994 37.6802 -0.0478793 27.6075 1.39107C18.4767 2.68613 12.8909 7.77474 10.7064 14.4332" stroke="#002A3A" stroke-width="1.16" stroke-miterlimit="10" stroke-linecap="round"/>
<path d="M37.5232 27.8024C37.5232 31.3474 34.763 34.2123 31.3619 34.2123C27.9607 34.2123 25.2006 31.3474 25.2006 27.8024C25.2006 24.2573 27.9607 21.3925 31.3619 21.3925C34.763 21.3925 37.5232 24.2573 37.5232 27.8024Z" stroke="#002A3A" stroke-width="1.16" stroke-linecap="round" stroke-linejoin="round"/>
<path d="M31.3619 24.061C30.7209 24.061 30.1323 24.2442 29.609 24.5712C30.6555 25.2253 31.3619 26.4288 31.3619 27.8154C31.3619 29.202 30.6555 30.4055 29.609 31.0596C30.1192 31.3866 30.7209 31.5697 31.3619 31.5697C33.298 31.5697 34.8677 29.8822 34.8677 27.8154C34.8677 25.7485 33.298 24.061 31.3619 24.061Z" fill="#002A3A"/>
<path d="M18.3198 27.8154H6.57269" stroke="#002A3A" stroke-width="1.16" stroke-linecap="round" stroke-linejoin="round"/>
<path d="M21.5116 20.0974H11.2427" stroke="#002A3A" stroke-width="1.16" stroke-linecap="round" stroke-linejoin="round"/>
<path d="M11.3735 35.468H21.6293C19.9418 33.3619 18.9477 30.7064 18.9477 27.8023C18.9477 21.0262 24.4418 15.532 31.218 15.532C37.9941 15.532 43.4883 21.0262 43.4883 27.8023C43.4883 34.5785 37.9941 40.0727 31.218 40.0727" stroke="#002A3A" stroke-width="1.16" stroke-miterlimit="10" stroke-linecap="round"/>
<path d="M1 27.8154C1 29.3459 2.24273 30.6017 3.78633 30.6017C5.32994 30.6017 6.57267 29.359 6.57267 27.8154C6.57267 26.2718 5.32994 25.0291 3.78633 25.0291C2.24273 25.0291 1 26.2718 1 27.8154Z" stroke="#002A3A" stroke-width="1.16" stroke-linecap="round" stroke-linejoin="round"/>
<path d="M5.68311 20.0974C5.68311 21.628 6.92584 22.8838 8.46944 22.8838C10.013 22.8838 11.2558 21.641 11.2558 20.0974C11.2558 18.5538 10.013 17.3111 8.46944 17.3111C6.92584 17.3111 5.68311 18.5538 5.68311 20.0974Z" stroke="#002A3A" stroke-width="1.16" stroke-linecap="round" stroke-linejoin="round"/>
<path d="M5.68311 35.468C5.68311 36.9985 6.92584 38.2543 8.46944 38.2543C10.013 38.2543 11.2558 37.0116 11.2558 35.468C11.2558 33.9244 10.013 32.6816 8.46944 32.6816C6.92584 32.6816 5.68311 33.9244 5.68311 35.468Z" stroke="#002A3A" stroke-width="1.16" stroke-linecap="round" stroke-linejoin="round"/>
</svg>
