<svg width="55" height="55" viewBox="0 0 55 55" fill="none" xmlns="http://www.w3.org/2000/svg">
<path d="M34.3438 32.125C34.3438 33.5104 33.8281 34.6406 32.7969 35.5156C31.7656 36.3906 30.3385 36.9427 28.5156 37.1719V40.8594H27.25V37.2344C26.2917 37.2135 25.2448 37.099 24.1094 36.8906C22.9844 36.6719 22.0885 36.4062 21.4219 36.0938V34.4844C22.2031 34.8594 23.1354 35.1771 24.2188 35.4375C25.3125 35.6979 26.3229 35.8281 27.25 35.8281V27.8906C25.7396 27.4323 24.6198 26.974 23.8906 26.5156C23.1615 26.0573 22.6302 25.5156 22.2969 24.8906C21.9635 24.2656 21.7969 23.5052 21.7969 22.6094C21.7969 21.3177 22.2865 20.2344 23.2656 19.3594C24.2552 18.474 25.5833 17.9271 27.25 17.7188V14.7188H28.5156V17.6875C30.5677 17.7812 32.3958 18.1562 34 18.8125L33.4844 20.2188C32.0156 19.5729 30.3594 19.1979 28.5156 19.0938V26.6875C30.7344 27.375 32.2604 28.125 33.0938 28.9375C33.9271 29.75 34.3438 30.8125 34.3438 32.125ZM32.625 32.0625C32.625 31.1771 32.2969 30.4479 31.6406 29.875C30.9844 29.2917 29.9427 28.7917 28.5156 28.375V35.7344C29.7865 35.599 30.7865 35.2083 31.5156 34.5625C32.2552 33.9167 32.625 33.0833 32.625 32.0625ZM23.5 22.6094C23.5 23.5052 23.7969 24.2396 24.3906 24.8125C24.9844 25.3854 25.9375 25.8698 27.25 26.2656V19.1875C26.0104 19.3542 25.0729 19.75 24.4375 20.375C23.8125 21 23.5 21.7448 23.5 22.6094Z" fill="#002A3A"/>
<path d="M41.7607 1.32001C44.6676 1.95747 47.4214 3.38539 49.678 5.64201C51.9347 7.89863 53.3626 10.6652 54 13.5593" stroke="#002A3A" stroke-width="1.16" stroke-miterlimit="10" stroke-linecap="round"/>
<path d="M42.0286 8.31934C43.2142 8.57432 44.3362 9.16079 45.2541 10.0787C46.1721 10.9967 46.7585 12.1186 47.0135 13.3043" stroke="#002A3A" stroke-width="1.16" stroke-miterlimit="10" stroke-linecap="round"/>
<path d="M1.32007 41.7607C1.95753 44.6675 3.38545 47.4214 5.64207 49.678C7.89869 51.9346 10.6653 53.3625 13.5594 54" stroke="#002A3A" stroke-width="1.16" stroke-miterlimit="10" stroke-linecap="round"/>
<path d="M8.31946 42.0284C8.57444 43.2141 9.16091 44.3361 10.0789 45.254C10.9968 46.172 12.1187 46.7584 13.3044 47.0134" stroke="#002A3A" stroke-width="1.16" stroke-miterlimit="10" stroke-linecap="round"/>
<path d="M27.6601 46.8477C38.2571 46.8477 46.8477 38.2571 46.8477 27.66C46.8477 17.063 38.2571 8.47235 27.6601 8.47235C17.063 8.47235 8.47241 17.063 8.47241 27.66C8.47241 38.2571 17.063 46.8477 27.6601 46.8477Z" stroke="#002A3A" stroke-width="1.16" stroke-miterlimit="10" stroke-linecap="round"/>
<path d="M38.8922 26.3978C38.3567 26.2576 37.834 26.1938 37.3495 26.1938C36.6228 26.1938 35.9344 26.3341 35.3224 26.5763C35.4499 27.762 35.4754 28.9604 35.4244 30.1589C35.9853 29.9294 36.5081 29.6489 36.9543 29.2792C37.987 28.4377 38.5735 27.3158 38.9177 26.4106L38.8922 26.3978Z" fill="#002A3A"/>
<path d="M16.2877 26.3978C16.8231 26.2576 17.3458 26.1938 17.8303 26.1938C18.557 26.1938 19.2455 26.3341 19.8574 26.5763C19.73 27.762 19.7045 28.9604 19.7682 30.1589C19.2072 29.9294 18.6845 29.6489 18.2383 29.2792C17.2056 28.4377 16.6191 27.3158 16.2749 26.4106L16.2877 26.3978Z" fill="#002A3A"/>
</svg>
