<svg width="69" height="54" viewBox="0 0 69 54" fill="none" xmlns="http://www.w3.org/2000/svg">
<path d="M23.051 23.2801C23.051 17.1398 28.0242 12.1666 34.1644 12.1666C40.3047 12.1666 45.2779 17.1398 45.2779 23.2801" stroke="#002A3A" stroke-width="1.16" stroke-linecap="round" stroke-linejoin="round"/>
<path d="M51.7099 23.3065C51.7099 23.3065 51.7099 23.2535 51.7099 23.2137C51.7099 20.6276 52.6515 18.1344 54.4419 16.2777L55.3172 15.3626L51.5773 8.89081L50.3572 9.19585C47.8507 9.81916 45.2248 9.39475 42.9836 8.09509C42.9571 8.08183 42.9305 8.06857 42.904 8.0553C40.6627 6.7689 38.952 4.70004 38.2358 2.2068L37.891 1H30.4246L30.0797 2.22007C29.3636 4.70005 27.6661 6.7689 25.4248 8.0553C25.4248 8.0553 25.3983 8.05532 25.385 8.06858C25.385 8.06858 25.3585 8.06859 25.3452 8.08185C23.104 9.38152 20.4781 9.81916 17.9584 9.19585L16.7383 8.89081L12.9984 15.3626L13.8737 16.2777C15.6773 18.1476 16.6057 20.6541 16.6057 23.2402C16.6057 23.2667 16.6057 23.2933 16.6057 23.333" stroke="#002A3A" stroke-width="1.16" stroke-linecap="round" stroke-linejoin="round"/>
<path d="M0.73114 31.8074C0.73114 28.5582 3.37026 25.9191 6.61943 25.9191H61.7094C64.9585 25.9191 67.5977 28.5582 67.5977 31.8074C67.5977 35.0565 64.9585 37.6956 61.7094 37.6956H6.61943C3.37026 37.6956 0.73114 35.0565 0.73114 31.8074Z" stroke="#002A3A" stroke-width="1.16" stroke-linecap="round" stroke-linejoin="round"/>
<path d="M59.057 31.8074C59.057 32.0329 58.8713 32.2185 58.6459 32.2185C58.4204 32.2185 58.2347 32.0329 58.2347 31.8074C58.2347 31.582 58.4204 31.3963 58.6459 31.3963C58.8713 31.3963 59.057 31.582 59.057 31.8074Z" stroke="#002A3A" stroke-width="1.16" stroke-linecap="round" stroke-linejoin="round"/>
<path d="M50.8877 31.8074C50.8877 32.0329 50.702 32.2185 50.4766 32.2185C50.2511 32.2185 50.0654 32.0329 50.0654 31.8074C50.0654 31.582 50.2511 31.3963 50.4766 31.3963C50.702 31.3963 50.8877 31.582 50.8877 31.8074Z" stroke="#002A3A" stroke-width="1.16" stroke-linecap="round" stroke-linejoin="round"/>
<path d="M42.7315 31.8074C42.7315 32.0329 42.5459 32.2185 42.3204 32.2185C42.095 32.2185 41.9093 32.0329 41.9093 31.8074C41.9093 31.582 42.095 31.3963 42.3204 31.3963C42.5459 31.3963 42.7315 31.582 42.7315 31.8074Z" stroke="#002A3A" stroke-width="1.16" stroke-linecap="round" stroke-linejoin="round"/>
<path d="M34.5623 31.8074C34.5623 32.0329 34.3766 32.2185 34.1512 32.2185C33.9257 32.2185 33.7401 32.0329 33.7401 31.8074C33.7401 31.582 33.9257 31.3963 34.1512 31.3963C34.3766 31.3963 34.5623 31.582 34.5623 31.8074Z" stroke="#002A3A" stroke-width="1.16" stroke-linecap="round" stroke-linejoin="round"/>
<path d="M26.4062 31.8074C26.4062 32.0329 26.2205 32.2185 25.995 32.2185C25.7696 32.2185 25.5839 32.0329 25.5839 31.8074C25.5839 31.582 25.7696 31.3963 25.995 31.3963C26.2205 31.3963 26.4062 31.582 26.4062 31.8074Z" stroke="#002A3A" stroke-width="1.16" stroke-linecap="round" stroke-linejoin="round"/>
<path d="M18.2368 31.8074C18.2368 32.0329 18.0512 32.2185 17.8257 32.2185C17.6003 32.2185 17.4146 32.0329 17.4146 31.8074C17.4146 31.582 17.6003 31.3963 17.8257 31.3963C18.0512 31.3963 18.2368 31.582 18.2368 31.8074Z" stroke="#002A3A" stroke-width="1.16" stroke-linecap="round" stroke-linejoin="round"/>
<path d="M10.0808 31.8074C10.0808 32.0329 9.89512 32.2185 9.66966 32.2185C9.44421 32.2185 9.25854 32.0329 9.25854 31.8074C9.25854 31.582 9.44421 31.3963 9.66966 31.3963C9.89512 31.3963 10.0808 31.582 10.0808 31.8074Z" stroke="#002A3A" stroke-width="1.16" stroke-linecap="round" stroke-linejoin="round"/>
<path d="M6.61945 37.6826V53.0001H61.7094V37.6826" stroke="#002A3A" stroke-width="1.16" stroke-linecap="round" stroke-linejoin="round"/>
<path d="M59.0172 50.3077V40.7592C52.2669 43.4911 43.6069 45.1356 34.1644 45.1356C24.7219 45.1356 16.0752 43.4911 9.31158 40.7592V50.3077H59.0172Z" fill="#002A3A"/>
</svg>
