<svg width="55" height="53" viewBox="0 0 55 53" fill="none" xmlns="http://www.w3.org/2000/svg">
<path d="M46.1868 19.1401L31.0763 27.8645" stroke="#002A3A" stroke-width="1.16" stroke-linecap="round" stroke-linejoin="round"/>
<path d="M23.0436 27.852L7.97083 19.1402L14.6964 15.306" stroke="#002A3A" stroke-width="1.16" stroke-linecap="round" stroke-linejoin="round"/>
<path d="M46.1869 31.749V41.215L40.9322 44.2446L27.0789 52.2398L7.97083 41.215V31.4724" stroke="#002A3A" stroke-width="1.16" stroke-miterlimit="10" stroke-linecap="round"/>
<path d="M27.0789 34.917V44.8356" stroke="#002A3A" stroke-width="1.16" stroke-miterlimit="10" stroke-linecap="round"/>
<path d="M27.0789 30.1776L34.4832 34.4518L53.5913 23.4144L46.1869 19.1402L39.5871 15.306" stroke="#002A3A" stroke-width="1.16" stroke-linecap="round" stroke-linejoin="round"/>
<path d="M7.97067 19.1401L0.578857 23.4143L19.6869 34.4517L27.0787 30.1776" stroke="#002A3A" stroke-width="1.16" stroke-linecap="round" stroke-linejoin="round"/>
<path d="M21.233 4.68335L32.9242 16.3744" stroke="#002A3A" stroke-width="1.16" stroke-linecap="round" stroke-linejoin="round"/>
<path d="M24.5015 13.1061L21.233 16.3746" stroke="#002A3A" stroke-width="1.16" stroke-linecap="round" stroke-linejoin="round"/>
<path d="M32.9245 4.68335L29.656 7.95182" stroke="#002A3A" stroke-width="1.16" stroke-linecap="round" stroke-linejoin="round"/>
<path d="M17.5498 20.0703V1H36.6202V20.0703" stroke="#002A3A" stroke-width="1.16" stroke-linecap="round" stroke-linejoin="round"/>
<path d="M48.4747 23.4144L45.8097 21.8807L32.0695 30.1022L34.4831 31.4976L48.4747 23.4144Z" fill="#002A3A"/>
<path d="M4.828 23.4144L7.49307 21.8807L21.2333 30.1022L18.8196 31.4976L4.828 23.4144Z" fill="#002A3A"/>
</svg>
