<svg width="50" height="49" viewBox="0 0 50 49" fill="none" xmlns="http://www.w3.org/2000/svg">
<path d="M23.6461 3.49839C24.2306 4.19749 24.8724 5.10288 25.5944 6.26039L29.8692 12.919L25.9611 15.2111L37.8916 15.83L43.874 5.355L40.1951 7.40645C39.1178 5.54984 37.8572 3.59007 37.0435 2.32941C36.4934 1.49279 35.5765 1 34.5795 1H21.1248C17.996 1 15.9446 1.76785 14.2255 4.12873L10.7644 9.32036L20.4371 15.0621L23.7148 9.85901" stroke="#002A3A" stroke-width="1.16" stroke-linecap="round" stroke-linejoin="round"/>
<path d="M9.56104 34.8086C9.87048 33.9835 10.3174 33.0322 10.9248 31.9091L14.5578 24.8838L18.4888 27.1186L13.0565 16.4717L1 16.529L4.62154 18.6951C3.55571 20.5517 2.47841 22.6261 1.80224 23.9669C1.35528 24.8609 1.38966 25.9038 1.88246 26.7748L8.60981 38.4302C10.1799 41.1349 11.8646 42.5331 14.7756 42.8425L20.9987 43.2436L21.1362 32.0008L14.9933 31.7601" stroke="#002A3A" stroke-width="1.16" stroke-linecap="round" stroke-linejoin="round"/>
<path d="M43.4384 31.5539C42.6133 31.6685 41.6391 31.7602 40.4702 31.7946L32.5624 32.1613L32.528 27.6344L26.0298 37.6624L32.1039 48.08L32.1727 43.8625C34.3158 43.8625 36.6423 43.7479 38.1437 43.6677C39.1407 43.6104 40.0347 43.0603 40.5275 42.2008L47.2548 30.5454C48.8134 27.8407 49.1802 25.6746 47.9883 23.0043L45.2263 17.4116L35.416 22.9126L38.2812 28.3564" stroke="#002A3A" stroke-width="1.16" stroke-linecap="round" stroke-linejoin="round"/>
<path d="M38.5448 23.8409L39.7482 26.11L45.4326 23.073L44.2292 20.6434L38.5448 23.8409Z" fill="#002A3A"/>
<path d="M19.6693 11.899L21.1133 9.60685L15.5435 6.35205L14.0651 8.5754L19.6693 11.899Z" fill="#002A3A"/>
<path d="M16.1394 40.5733L18.6951 40.7452L18.7753 34.2241L16.1394 34.121V40.5733Z" fill="#002A3A"/>
</svg>
