<svg width="59" height="56" viewBox="0 0 59 56" fill="none" xmlns="http://www.w3.org/2000/svg">
<path d="M44.1801 10.5937L36.3514 6.06257L44.1801 1.54407L52.0214 6.06257L44.1801 10.5937Z" stroke="#002A3A" stroke-width="1.16" stroke-linecap="round" stroke-linejoin="round"/>
<path d="M52.0214 6.0625V15.1121L44.1801 19.6306L36.3514 15.1121V6.0625" stroke="#002A3A" stroke-width="1.16" stroke-miterlimit="10" stroke-linecap="round"/>
<path d="M44.1802 10.5936V16.5973" stroke="#002A3A" stroke-width="1.16" stroke-miterlimit="10" stroke-linecap="round"/>
<path d="M25.3258 23.4946L29.4415 27.044" stroke="#002A3A" stroke-width="1.16" stroke-linecap="round" stroke-linejoin="round"/>
<path d="M10.2851 5.18153C12.0094 2.94115 14.4889 1.54407 17.2328 1.54407C19.9766 1.54407 22.4183 2.92857 24.1427 5.14377" stroke="#002A3A" stroke-width="1.16" stroke-miterlimit="10" stroke-linecap="round"/>
<path d="M26.5845 14.2058C26.0055 19.7438 22.0282 24.0358 17.2202 24.0358C12.4122 24.0358 8.44752 19.7438 7.85596 14.2058" stroke="#002A3A" stroke-width="1.16" stroke-miterlimit="10" stroke-linecap="round"/>
<path d="M8.93834 23.3058L1.15997 30.2157V40.5617C1.15997 43.2552 3.34999 45.4452 6.04347 45.4452H21.8771L33.1042 26.1503H55.6589L45.5269 45.4452H35.1432" stroke="#002A3A" stroke-width="1.16" stroke-linecap="round" stroke-linejoin="round"/>
<path d="M47.8302 41.0652H53.1668L58 54.6459H1.15997" stroke="#002A3A" stroke-width="1.16" stroke-linecap="round" stroke-linejoin="round"/>
<path d="M5.53998 9.72515V12.2802C5.53998 13.3374 6.39585 14.2059 7.46569 14.2059H15.1434V12.5697H19.3095V14.2059H26.9871C28.0444 14.2059 28.9128 13.35 28.9128 12.2802V9.72515C28.9128 8.6679 28.057 7.79944 26.9871 7.79944H7.46569C6.40844 7.79944 5.53998 8.65531 5.53998 9.72515Z" stroke="#002A3A" stroke-width="1.16" stroke-linecap="round" stroke-linejoin="round"/>
<path d="M34.5768 28.718L29.3157 37.755H46.6723L51.4173 28.718H34.5768Z" fill="#002A3A"/>
</svg>
