<svg width="43" height="55" viewBox="0 0 43 55" fill="none" xmlns="http://www.w3.org/2000/svg">
<path d="M29.4796 46.2551H31.2291C31.9036 46.2762 32.4516 45.7387 32.4621 45.0642L32.4832 43.1355C32.4832 42.461 31.9457 41.913 31.2712 41.9025H29.5323C29.1529 40.4481 28.4151 39.1939 27.435 38.2032L28.3202 36.6961C28.6575 36.1165 28.4678 35.3682 27.8881 35.0204L26.223 34.0403C25.6433 33.703 24.895 33.8927 24.5472 34.4724L23.6619 35.9795C22.3235 35.6106 20.8691 35.5684 19.4252 35.9373L18.5715 34.4197C18.2343 33.8295 17.4965 33.6292 16.9063 33.956L15.2201 34.9045C14.6299 35.2312 14.4296 35.9795 14.7564 36.5697L15.6206 38.0873C14.5983 39.0991 13.8605 40.3532 13.4706 41.7444H11.7211C11.0466 41.7233 10.4985 42.2608 10.488 42.9353L10.4669 44.864C10.4669 45.5385 11.0044 46.0865 11.6789 46.097H13.4179C13.7973 47.5515 14.535 48.8056 15.5152 49.7963L14.6299 51.3034C14.2926 51.883 14.4823 52.6313 15.062 52.9791L16.7272 53.9593C17.3068 54.2965 18.0551 54.1068 18.3924 53.5272L19.2777 52.0201C20.6161 52.3889 22.0705 52.4311 23.5144 52.0622L24.3786 53.5799C24.7159 54.17 25.4536 54.3703 26.0438 54.0436L27.7301 53.0951C28.3203 52.7578 28.5205 52.0201 28.1938 51.4299L27.3296 49.9122C28.3519 48.9005 29.0896 47.6463 29.4796 46.2657V46.2551Z" stroke="#002A3A" stroke-width="1.16" stroke-miterlimit="10"/>
<path d="M24.6315 43.9997C24.6315 42.2608 23.2192 40.8485 21.4803 40.8485C19.7413 40.8485 18.329 42.2608 18.329 43.9997C18.329 45.7387 19.7413 47.1509 21.4803 47.1509C23.2192 47.1509 24.6315 45.7387 24.6315 43.9997Z" stroke="#002A3A" stroke-width="1.16" stroke-miterlimit="10"/>
<path d="M8.97034 9.65265C8.97034 9.2627 8.87549 8.90436 8.70686 8.58819C9.51838 7.96638 10.0453 6.98624 10.0453 5.87963C10.0453 3.99312 8.51716 2.45441 6.62011 2.45441C6.30394 2.45441 5.99831 2.49656 5.70321 2.58087C5.51351 1.67451 4.71253 1 3.74293 1C2.63632 1 1.74048 1.89582 1.74048 3.00243C1.74048 3.9615 2.41498 4.76247 3.32135 4.96272C3.23704 5.25781 3.19489 5.56346 3.19489 5.87963C3.19489 6.98624 3.72185 7.96638 4.53336 8.58819C4.36474 8.90436 4.26989 9.27324 4.26989 9.65265" stroke="#002A3A" stroke-width="1.16" stroke-miterlimit="10" stroke-linecap="round"/>
<path d="M23.7357 9.65265C23.7357 9.2627 23.6408 8.90436 23.4722 8.58819C24.2837 7.96638 24.8106 6.98624 24.8106 5.87963C24.8106 3.99312 23.2825 2.45441 21.3854 2.45441C21.0692 2.45441 20.7636 2.49656 20.4685 2.58087C20.2788 1.67451 19.4778 1 18.5082 1C17.4016 1 16.5058 1.89582 16.5058 3.00243C16.5058 3.9615 17.1803 4.76247 18.0867 4.96272C18.0024 5.25781 17.9602 5.56346 17.9602 5.87963C17.9602 6.98624 18.4872 7.96638 19.2987 8.58819C19.13 8.90436 19.0352 9.27324 19.0352 9.65265" stroke="#002A3A" stroke-width="1.16" stroke-miterlimit="10" stroke-linecap="round"/>
<path d="M38.4905 9.65265C38.4905 9.2627 38.3956 8.90436 38.227 8.58819C39.0385 7.96638 39.5655 6.98624 39.5655 5.87963C39.5655 3.99312 38.0373 2.45441 36.1402 2.45441C35.8241 2.45441 35.5184 2.49656 35.2233 2.58087C35.0336 1.67451 34.2327 1 33.2631 1C32.1564 1 31.2606 1.89582 31.2606 3.00243C31.2606 3.9615 31.9351 4.76247 32.8415 4.96272C32.7572 5.25781 32.715 5.56346 32.715 5.87963C32.715 6.98624 33.242 7.96638 34.0535 8.58819C33.8849 8.90436 33.79 9.27324 33.79 9.65265" stroke="#002A3A" stroke-width="1.16" stroke-miterlimit="10" stroke-linecap="round"/>
<path d="M8.69641 35.052H9.85571" stroke="#002A3A" stroke-width="1.16" stroke-miterlimit="10"/>
<path d="M5.06018 35.052H6.21948" stroke="#002A3A" stroke-width="1.16" stroke-miterlimit="10"/>
<path d="M33.2524 35.052H34.4117" stroke="#002A3A" stroke-width="1.16" stroke-miterlimit="10"/>
<path d="M36.741 35.052H37.9003" stroke="#002A3A" stroke-width="1.16" stroke-miterlimit="10"/>
<path d="M5.06018 39.3625H6.21948" stroke="#002A3A" stroke-width="1.16" stroke-miterlimit="10"/>
<path d="M36.741 39.3625H37.9003" stroke="#002A3A" stroke-width="1.16" stroke-miterlimit="10"/>
<path d="M39.945 26.1042L38.4063 12.0344H36.3301H34.2433L32.7151 26.1042" stroke="#002A3A" stroke-width="1.16" stroke-miterlimit="10" stroke-linecap="round"/>
<path d="M25.0953 26.1042L23.5566 12.0344H21.4804H19.3936L17.8654 26.1042" stroke="#002A3A" stroke-width="1.16" stroke-miterlimit="10" stroke-linecap="round"/>
<path d="M10.2455 26.1042L8.70676 12.0344H6.63055H4.5438L3.01562 26.1042" stroke="#002A3A" stroke-width="1.16" stroke-miterlimit="10" stroke-linecap="round"/>
<path d="M34.4118 43.9997H42V30.0037V26.1042H30.6494V30.0037H27.1503V26.1042H15.7997V30.0037H12.3007V26.1042H0.950012V30.0037V43.9997H8.4012" stroke="#002A3A" stroke-width="1.16" stroke-miterlimit="10" stroke-linecap="round"/>
<path d="M39.4705 28.0961H33.2524V28.8443V29.8666H39.4705V28.8443V28.0961Z" fill="#002A3A"/>
<path d="M24.5894 28.0961H18.3713V28.8443V29.8666H24.5894V28.8443V28.0961Z" fill="#002A3A"/>
<path d="M9.70821 28.0961H3.49011V28.8443V29.8666H9.70821V28.8443V28.0961Z" fill="#002A3A"/>
</svg>
