<svg width="55" height="55" viewBox="0 0 55 55" fill="none" xmlns="http://www.w3.org/2000/svg">
<path d="M19.598 41.5562H5.94798C3.21551 41.5562 1 39.3407 1 36.6082V5.28334C1 2.92013 2.92011 1 5.28333 1C7.64654 1 9.56665 2.92013 9.56665 5.28334V35.8451C9.56665 35.8451 6.29262 32.9526 2.67394 34.7004" stroke="#002A3A" stroke-width="1.16" stroke-miterlimit="10" stroke-linecap="round"/>
<path d="M11.979 5.46802H48.1411V25.383" stroke="#002A3A" stroke-width="1.16" stroke-miterlimit="10" stroke-linecap="round"/>
<path d="M43.5869 28.7432L28.6568 43.6241L24.7673 39.7223L39.6974 24.8538" stroke="#002A3A" stroke-width="1.16" stroke-linecap="round" stroke-linejoin="round"/>
<path d="M24.7674 39.7224L22.8473 41.6302C22.4288 42.0364 22.4288 42.7134 22.8473 43.1195L25.2351 45.5197C25.6413 45.9382 26.3183 45.9382 26.7245 45.5197L28.6446 43.6119" stroke="#002A3A" stroke-width="1.16" stroke-miterlimit="10" stroke-linecap="round"/>
<path d="M43.587 28.7432L45.4579 22.8967L39.7099 24.8538C40.2269 26.7246 41.6669 28.1893 43.5255 28.7309L43.587 28.7555V28.7432Z" stroke="#002A3A" stroke-width="1.16" stroke-linecap="round" stroke-linejoin="round"/>
<path d="M39.8451 28.5093L37.6788 30.7002" stroke="#002A3A" stroke-width="1.16" stroke-linecap="round" stroke-linejoin="round"/>
<path d="M23.3766 54H53.803V23.5736L23.3766 54ZM48.2765 48.4735H36.7435L48.2765 36.9406V48.4735Z" stroke="#002A3A" stroke-width="1.16" stroke-miterlimit="10" stroke-linecap="round"/>
<path d="M52.449 30.097H51.5874" stroke="#002A3A" stroke-width="1.16" stroke-miterlimit="10" stroke-linecap="round"/>
<path d="M52.4491 32.6327H50.8367" stroke="#002A3A" stroke-width="1.16" stroke-miterlimit="10" stroke-linecap="round"/>
<path d="M52.449 35.1682H51.5874" stroke="#002A3A" stroke-width="1.16" stroke-miterlimit="10" stroke-linecap="round"/>
<path d="M52.4491 37.6914H50.8367" stroke="#002A3A" stroke-width="1.16" stroke-miterlimit="10" stroke-linecap="round"/>
<path d="M52.449 40.2269H51.5874" stroke="#002A3A" stroke-width="1.16" stroke-miterlimit="10" stroke-linecap="round"/>
<path d="M52.4491 42.7502H50.8367" stroke="#002A3A" stroke-width="1.16" stroke-miterlimit="10" stroke-linecap="round"/>
<path d="M52.449 45.2858H51.5874" stroke="#002A3A" stroke-width="1.16" stroke-miterlimit="10" stroke-linecap="round"/>
<path d="M52.4491 47.8213H50.8367" stroke="#002A3A" stroke-width="1.16" stroke-miterlimit="10" stroke-linecap="round"/>
<path d="M52.449 50.3444H51.5874" stroke="#002A3A" stroke-width="1.16" stroke-miterlimit="10" stroke-linecap="round"/>
<path d="M37.4327 7.96667L45.6425 16.1764V7.96667H37.4327Z" fill="#002A3A"/>
</svg>
