<svg width="49" height="51" viewBox="0 0 49 51" fill="none" xmlns="http://www.w3.org/2000/svg">
<g clip-path="url(#clip0_126_3481)">
<path d="M25.0277 12.7791V20.0315" stroke="#002A3A" stroke-width="1.16" stroke-miterlimit="10" stroke-linecap="round"/>
<path d="M33.2852 20.4863H15.8772C14.2439 20.4863 12.9198 21.8174 12.9198 23.4595V30.3621C12.9198 32.0042 14.2439 33.3354 15.8772 33.3354H33.2852C34.9186 33.3354 36.2426 32.0042 36.2426 30.3621V23.4595C36.2426 21.8174 34.9186 20.4863 33.2852 20.4863Z" stroke="#002A3A" stroke-width="1.16" stroke-miterlimit="10" stroke-linecap="round"/>
<path d="M25.0277 8.93143C26.2895 8.93143 27.3124 7.90303 27.3124 6.63445C27.3124 5.36586 26.2895 4.33746 25.0277 4.33746C23.7658 4.33746 22.7429 5.36586 22.7429 6.63445C22.7429 7.90303 23.7658 8.93143 25.0277 8.93143Z" stroke="#002A3A" stroke-width="1.16" stroke-miterlimit="10" stroke-linecap="round"/>
<path d="M12.9198 29.2894H9.82325C8.1068 29.2894 6.71509 30.6886 6.71509 32.4143V39.7949" stroke="#002A3A" stroke-width="1.16" stroke-miterlimit="10" stroke-linecap="round"/>
<path d="M4.80146 39.7949H8.62868C9.90442 39.7949 10.9366 40.8326 10.9366 42.1152V48.0151C10.9366 49.2977 9.90442 50.3354 8.62868 50.3354H4.78986C3.51412 50.3354 2.48193 49.2977 2.48193 48.0151V42.1152C2.48193 40.8326 3.51412 39.7949 4.78986 39.7949H4.80146Z" stroke="#002A3A" stroke-width="1.16" stroke-miterlimit="10" stroke-linecap="round"/>
<path d="M9.73047 37.3697C10.0552 36.81 10.6699 36.4369 11.3541 36.4369H14.4971C15.5409 36.4369 16.3875 37.2881 16.3875 38.3374V43.1646C16.3875 44.214 15.5409 45.0651 14.4971 45.0651H13.3025" stroke="#002A3A" stroke-width="1.16" stroke-miterlimit="10" stroke-linecap="round"/>
<path d="M35.8715 45.0651H34.6769C33.6331 45.0651 32.7865 44.214 32.7865 43.1646V38.3374C32.7865 37.2881 33.6331 36.4369 34.6769 36.4369H37.8199C38.5389 36.4369 39.1536 36.8333 39.4783 37.428" stroke="#002A3A" stroke-width="1.16" stroke-miterlimit="10" stroke-linecap="round"/>
<path d="M36.2426 29.2894H39.3391C41.0556 29.2894 42.4473 30.6886 42.4473 32.4143V39.7949" stroke="#002A3A" stroke-width="1.16" stroke-miterlimit="10" stroke-linecap="round"/>
<path d="M40.5337 50.3237H44.3725C45.6471 50.3237 46.6804 49.2849 46.6804 48.0034V42.1036C46.6804 40.8221 45.6471 39.7833 44.3725 39.7833H40.5337C39.259 39.7833 38.2257 40.8221 38.2257 42.1036V48.0034C38.2257 49.2849 39.259 50.3237 40.5337 50.3237Z" stroke="#002A3A" stroke-width="1.16" stroke-miterlimit="10" stroke-linecap="round"/>
<path d="M45.4976 17.1516L47.0169 15.1344C48.3158 13.3971 48.7913 11.3683 47.7243 9.46776L45.9383 6.28464" stroke="#002A3A" stroke-width="1.16" stroke-linecap="round" stroke-linejoin="round"/>
<path d="M40.4294 17.1516L38.9101 15.1344C37.6111 13.3971 37.1356 11.3683 38.2026 9.46775L40.035 6.203" stroke="#002A3A" stroke-width="1.16" stroke-linecap="round" stroke-linejoin="round"/>
<path d="M47.0168 15.1344C48.3506 13.3855 48.8261 11.3567 47.7243 9.46777" stroke="#002A3A" stroke-width="1.16" stroke-linecap="round" stroke-linejoin="round"/>
<path d="M42.9692 10.1907V22.9931C42.9692 24.0658 42.0994 24.9287 41.044 24.9287H36.2542" stroke="#002A3A" stroke-width="1.16" stroke-linecap="round" stroke-linejoin="round"/>
<path d="M3.50247 17.1516L1.98318 15.1344C0.684243 13.3971 0.20874 11.3683 1.27572 9.46776L3.06176 6.28464" stroke="#002A3A" stroke-width="1.16" stroke-linecap="round" stroke-linejoin="round"/>
<path d="M8.57068 17.1516L10.09 15.1344C11.3889 13.3971 11.8644 11.3683 10.7974 9.46775L8.965 6.203" stroke="#002A3A" stroke-width="1.16" stroke-linecap="round" stroke-linejoin="round"/>
<path d="M1.99473 15.1344C0.661007 13.3855 0.185504 11.3567 1.28728 9.46777" stroke="#002A3A" stroke-width="1.16" stroke-linecap="round" stroke-linejoin="round"/>
<path d="M6.04236 10.1907V22.9931C6.04236 24.0658 6.91218 24.9287 7.96757 24.9287H12.7574" stroke="#002A3A" stroke-width="1.16" stroke-linecap="round" stroke-linejoin="round"/>
<path d="M30.467 0.67627H19.5884C18.5636 0.67627 17.7328 1.51151 17.7328 2.54184V10.727C17.7328 11.7573 18.5636 12.5926 19.5884 12.5926H30.467C31.4918 12.5926 32.3226 11.7573 32.3226 10.727V2.54184C32.3226 1.51151 31.4918 0.67627 30.467 0.67627Z" stroke="#002A3A" stroke-width="1.16" stroke-miterlimit="10" stroke-linecap="round"/>
<path d="M25.0277 25.9197C28.4374 25.9197 31.5455 26.6426 33.8882 27.8319V23.4595C33.8882 23.1214 33.6215 22.8532 33.2852 22.8532H15.8771C15.5408 22.8532 15.274 23.1214 15.274 23.4595V28.3333C17.6864 26.8525 21.1656 25.9197 25.0161 25.9197H25.0277Z" fill="#002A3A"/>
</g>
<defs>
<clipPath id="clip0_126_3481">
<rect width="49" height="51" fill="white"/>
</clipPath>
</defs>
</svg>
