<svg width="74" height="57" viewBox="0 0 74 57" fill="none" xmlns="http://www.w3.org/2000/svg">
<path d="M1.48999 50.0055V39.9035C1.48999 37.6029 3.34816 35.7449 5.64875 35.7449H9.08488V31.2911C9.08488 29.7574 10.3237 28.5038 11.8721 28.5038H19.349C20.8828 28.5038 22.1363 29.7426 22.1363 31.2911V35.7449H40.9687C43.2693 35.7449 45.1274 37.6029 45.1274 39.9035V50.0055" stroke="#002A3A" stroke-width="1.16" stroke-miterlimit="10" stroke-linecap="round"/>
<path d="M15.4409 28.5039V7.45943C15.4409 4.86389 17.535 2.76978 20.1306 2.76978C21.9298 2.76978 23.5667 3.80207 24.3631 5.42428L27.6075 12.0311C28.3744 13.5796 29.9376 14.5529 31.663 14.5529H40.2902" stroke="#002A3A" stroke-width="1.16" stroke-linecap="round" stroke-linejoin="round"/>
<path d="M72.9999 28.3269H59.3143V21.4841H72.9999" stroke="#002A3A" stroke-width="1.16" stroke-miterlimit="10" stroke-linecap="round"/>
<path d="M65.9211 21.5136V14.6708H72.7787" stroke="#002A3A" stroke-width="1.16" stroke-miterlimit="10" stroke-linecap="round"/>
<path d="M72.9999 1H59.3143V7.8428H72.9999" stroke="#002A3A" stroke-width="1.16" stroke-miterlimit="10" stroke-linecap="round"/>
<path d="M65.9211 7.82806V14.6708" stroke="#002A3A" stroke-width="1.16" stroke-miterlimit="10" stroke-linecap="round"/>
<path d="M60.7744 11.2791H47.2068V18.0628H60.7744V11.2791Z" stroke="#002A3A" stroke-width="1.16" stroke-miterlimit="10" stroke-linecap="round"/>
<path d="M34.7158 55.7865H11.8722C8.67198 55.7865 6.09119 53.191 6.09119 50.0056C6.09119 46.8054 8.68672 44.2246 11.8722 44.2246H34.7158C37.916 44.2246 40.4968 46.8201 40.4968 50.0056C40.4968 53.2057 37.9013 55.7865 34.7158 55.7865Z" stroke="#002A3A" stroke-width="1.16" stroke-linecap="round" stroke-linejoin="round"/>
<path d="M34.4209 50.0055C34.4209 50.1678 34.2882 50.3005 34.126 50.3005C33.9638 50.3005 33.8311 50.1678 33.8311 50.0055C33.8311 49.8433 33.9638 49.7106 34.126 49.7106C34.2882 49.7106 34.4209 49.8433 34.4209 50.0055Z" stroke="#002A3A" stroke-width="1.16" stroke-linecap="round" stroke-linejoin="round"/>
<path d="M29.0086 50.0055C29.0086 50.1678 28.8759 50.3005 28.7136 50.3005C28.5514 50.3005 28.4187 50.1678 28.4187 50.0055C28.4187 49.8433 28.5514 49.7106 28.7136 49.7106C28.8759 49.7106 29.0086 49.8433 29.0086 50.0055Z" stroke="#002A3A" stroke-width="1.16" stroke-linecap="round" stroke-linejoin="round"/>
<path d="M23.3013 50.3005C23.4642 50.3005 23.5962 50.1684 23.5962 50.0055C23.5962 49.8426 23.4642 49.7106 23.3013 49.7106C23.1384 49.7106 23.0063 49.8426 23.0063 50.0055C23.0063 50.1684 23.1384 50.3005 23.3013 50.3005Z" stroke="#002A3A" stroke-width="1.16" stroke-linecap="round" stroke-linejoin="round"/>
<path d="M17.8892 50.3005C18.0521 50.3005 18.1841 50.1684 18.1841 50.0055C18.1841 49.8426 18.0521 49.7106 17.8892 49.7106C17.7263 49.7106 17.5942 49.8426 17.5942 50.0055C17.5942 50.1684 17.7263 50.3005 17.8892 50.3005Z" stroke="#002A3A" stroke-width="1.16" stroke-linecap="round" stroke-linejoin="round"/>
<path d="M12.4768 50.3005C12.6397 50.3005 12.7718 50.1684 12.7718 50.0055C12.7718 49.8426 12.6397 49.7106 12.4768 49.7106C12.3139 49.7106 12.1819 49.8426 12.1819 50.0055C12.1819 50.1684 12.3139 50.3005 12.4768 50.3005Z" stroke="#002A3A" stroke-width="1.16" stroke-linecap="round" stroke-linejoin="round"/>
<path d="M40.5115 50.0056H45.0979" stroke="#002A3A" stroke-width="1.16" stroke-linecap="round" stroke-linejoin="round"/>
<path d="M6.09117 50.0056H1.48999" stroke="#002A3A" stroke-width="1.16" stroke-linecap="round" stroke-linejoin="round"/>
<path d="M40.8506 14.6708V14.4054C40.8506 12.6799 41.5437 11.0135 42.7677 9.78945C43.9918 8.56542 45.6435 7.87231 47.3837 7.87231H49.3746" stroke="#002A3A" stroke-width="1.16" stroke-linecap="round" stroke-linejoin="round"/>
<path d="M40.8506 14.376V14.6414C40.8506 16.3669 41.5437 18.0333 42.7677 19.2574C43.9918 20.4814 45.6435 21.1745 47.3837 21.1745H49.3746" stroke="#002A3A" stroke-width="1.16" stroke-linecap="round" stroke-linejoin="round"/>
<path d="M18.9362 31.6746H12.2556V35.7301H18.9362V31.6746Z" fill="#002A3A"/>
</svg>
