<svg width="65" height="42" viewBox="0 0 65 42" fill="none" xmlns="http://www.w3.org/2000/svg">
<g clip-path="url(#clip0_126_3512)">
<path d="M64.212 12.3012V41.2262H43.1929V25.2694C43.1929 20.7999 40.1495 16.8374 35.7473 15.7167C29.4158 14.1023 21.3587 10.1931 21.3587 0.773834H64.1984V12.3012H64.212Z" stroke="#002A3A" stroke-width="1.16" stroke-miterlimit="10" stroke-linecap="round"/>
<path d="M43.1929 41.2262H0.788025V0.773834H21.3723" stroke="#002A3A" stroke-width="1.16" stroke-miterlimit="10" stroke-linecap="round"/>
<path d="M3.8587 19.8926L19.8234 35.5826" stroke="#002A3A" stroke-width="1.16" stroke-miterlimit="10" stroke-linecap="round"/>
<path d="M5.23096 10.1131L32.4456 36.8367" stroke="#002A3A" stroke-width="1.16" stroke-miterlimit="10" stroke-linecap="round"/>
<path d="M11.3179 4.9498L38.2201 31.3532" stroke="#002A3A" stroke-width="1.16" stroke-miterlimit="10" stroke-linecap="round"/>
<path d="M38.7228 21.2802L20.8696 38.8113" stroke="#002A3A" stroke-width="1.16" stroke-miterlimit="10" stroke-linecap="round"/>
<path d="M30.8152 17.9047L11.413 36.9568" stroke="#002A3A" stroke-width="1.16" stroke-miterlimit="10" stroke-linecap="round"/>
<path d="M24.0217 13.4352L5.66577 31.46" stroke="#002A3A" stroke-width="1.16" stroke-miterlimit="10" stroke-linecap="round"/>
<path d="M18.7364 7.48474L7.67664 18.345" stroke="#002A3A" stroke-width="1.16" stroke-miterlimit="10" stroke-linecap="round"/>
<path d="M61.2772 3.6423H45.8967L61.2772 18.7452V3.6423Z" fill="#002A3A"/>
</g>
<defs>
<clipPath id="clip0_126_3512">
<rect width="65" height="42" fill="white"/>
</clipPath>
</defs>
</svg>
