<svg width="55" height="60" viewBox="0 0 55 60" fill="none" xmlns="http://www.w3.org/2000/svg">
<path d="M34.0177 9.42297H3.72649C2.32304 9.42297 1.1886 10.5574 1.1886 11.9609V39.4102C1.1886 40.8136 2.32304 41.948 3.72649 41.948H42.4502C43.8536 41.948 44.9881 40.8136 44.9881 39.4102V23.8552" stroke="#002A3A" stroke-width="1.16" stroke-linecap="round" stroke-linejoin="round"/>
<path d="M34.2633 41.9246L36.2516 46.9653H23.0942H9.93677L11.925 41.9246" stroke="#002A3A" stroke-width="1.16" stroke-linecap="round" stroke-linejoin="round"/>
<path d="M39.585 50.7781L43.0001 56.9416C43.5147 57.8655 42.848 59 41.7838 59H4.40508C3.34079 59 2.67414 57.8655 3.18874 56.9416L6.60379 50.7781H39.5967H39.585Z" stroke="#002A3A" stroke-width="1.16" stroke-linecap="round" stroke-linejoin="round"/>
<path d="M6.07751 56.6258L7.99555 53.1522H38.1815L40.0996 56.6258H6.07751Z" fill="#002A3A"/>
<path d="M36.2047 5.85585L44.988 0.780029L53.7713 5.85585L44.988 10.92" stroke="#002A3A" stroke-width="1.16" stroke-linecap="round" stroke-linejoin="round"/>
<path d="M41.9474 5.85576L44.9882 4.10144L48.029 5.85576L44.9882 7.61008L41.9474 5.85576Z" fill="#344154"/>
<path d="M53.7713 5.85583V15.9958L44.988 21.0716L36.2047 15.9958V5.85583" stroke="#002A3A" stroke-width="1.16" stroke-miterlimit="10" stroke-linecap="round"/>
<path d="M44.9883 10.9199V17.6565" stroke="#002A3A" stroke-width="1.16" stroke-miterlimit="10" stroke-linecap="round"/>
<path d="M10.2762 33.1763C12.393 32.1471 14.3111 33.843 14.3111 33.843V15.9372C14.3111 14.5455 13.1883 13.4227 11.7966 13.4227C10.4048 13.4227 9.28204 14.5455 9.28204 15.9372V34.2874C9.28204 35.8897 10.5803 37.1879 12.1825 37.1879H36.895V19.4108" stroke="#002A3A" stroke-width="1.16" stroke-miterlimit="10" stroke-linecap="round"/>
<path d="M16.5683 16.0425H33.8191" stroke="#002A3A" stroke-width="1.16" stroke-miterlimit="10" stroke-linecap="round"/>
</svg>
